<svg xmlns="http://www.w3.org/2000/svg" viewBox="0 0 24 24" fill="none">
  <defs>
    <linearGradient id="fire" x1="5" y1="3" x2="18" y2="21" gradientUnits="userSpaceOnUse">
      <stop stop-color="#FFCF5C"/>
      <stop offset="0.52" stop-color="#FF7A3D"/>
      <stop offset="1" stop-color="#8B63F6"/>
    </linearGradient>
  </defs>
  <path d="M13.5 2.4c.7 3.2-.7 4.5-1.9 5.8-1.1 1.2-2.1 2.3-1.4 4.3.5-1.3 1.4-2.1 2.4-2.9 1.8 1.6 3.1 3.2 3.1 5.5 0 2.2-1.6 4-3.7 4-2.4 0-4.4-1.9-4.4-4.6 0-1.9.8-3.5 2-5.1C11.1 7.4 13 5.5 13.5 2.4Z" fill="url(#fire)"/>
  <path d="M12.1 12.8c1.3 1.1 2 2.2 2 3.4 0 1.3-.9 2.3-2.2 2.3-1.4 0-2.4-1-2.4-2.5 0-1.2.7-2.1 1.4-2.9.4-.4.7-.8.9-1.3.1.4.2.7.3 1Z" fill="#FFF4CA" fill-opacity=".9"/>
</svg>
