<svg xmlns="http://www.w3.org/2000/svg" style="display:none">
<defs>
  <symbol id="mova-icon-private-library" viewBox="0 0 24 24" fill="none" stroke="currentColor" stroke-width="1.8" stroke-linecap="round" stroke-linejoin="round">
    <title>私有媒体库</title>
    <path d="M5.5 8.5h13a1.5 1.5 0 0 1 1.5 1.5v7.5A2.5 2.5 0 0 1 17.5 20h-11A2.5 2.5 0 0 1 4 17.5V10a1.5 1.5 0 0 1 1.5-1.5Z"/>
<path d="M8 8.5V6.8A2.8 2.8 0 0 1 10.8 4h2.4A2.8 2.8 0 0 1 16 6.8v1.7"/>
<path d="M9 14h6"/>
<path d="M12 11.7v4.6"/>
  </symbol>
  <symbol id="mova-icon-device-access" viewBox="0 0 24 24" fill="none" stroke="currentColor" stroke-width="1.8" stroke-linecap="round" stroke-linejoin="round">
    <title>多设备访问</title>
    <rect x="3.5" y="5" width="12" height="8.5" rx="1.8"/>
<path d="M8.3 17h2.5"/>
<path d="M9.55 13.5V17"/>
<rect x="17" y="9" width="3.8" height="10" rx="1.2"/>
<path d="M18.6 16.8h.6"/>
  </symbol>
  <symbol id="mova-icon-transcode" viewBox="0 0 24 24" fill="none" stroke="currentColor" stroke-width="1.8" stroke-linecap="round" stroke-linejoin="round">
    <title>高性能转码</title>
    <path d="M5 7.5h10.8l-2.7-2.7"/>
<path d="M15.8 7.5l-2.7 2.7"/>
<path d="M19 16.5H8.2l2.7 2.7"/>
<path d="M8.2 16.5l2.7-2.7"/>
<path d="M10 10.1v3.8c0 .55.6.9 1.08.62l3.2-1.9a.72.72 0 0 0 0-1.24l-3.2-1.9A.72.72 0 0 0 10 10.1Z" fill="currentColor" stroke="none"/>
  </symbol>
  <symbol id="mova-icon-permissions" viewBox="0 0 24 24" fill="none" stroke="currentColor" stroke-width="1.8" stroke-linecap="round" stroke-linejoin="round">
    <title>用户与权限管理</title>
    <path d="M9.5 12a3.4 3.4 0 1 0 0-6.8 3.4 3.4 0 0 0 0 6.8Z"/>
<path d="M4.2 19.2c.72-2.95 2.75-4.45 5.3-4.45 1.05 0 2.02.25 2.83.75"/>
<path d="M16.4 20.2s3.8-1.65 3.8-5.2v-2.3l-3.8-1.35-3.8 1.35V15c0 3.55 3.8 5.2 3.8 5.2Z"/>
<path d="M15 15.1l.95.95 1.95-2.1"/>
  </symbol>
  <symbol id="mova-icon-metadata" viewBox="0 0 24 24" fill="none" stroke="currentColor" stroke-width="1.8" stroke-linecap="round" stroke-linejoin="round">
    <title>元数据整理</title>
    <path d="M6.5 4.5h7.2L18 8.8v10.7H6.5a1.8 1.8 0 0 1-1.8-1.8V6.3a1.8 1.8 0 0 1 1.8-1.8Z"/>
<path d="M13.5 4.8V9h4.2"/>
<path d="M8.2 12.5h7.6"/>
<path d="M8.2 16h4.8"/>
<path d="M17.7 13.2l.35.95.95.35-.95.35-.35.95-.35-.95-.95-.35.95-.35.35-.95Z" fill="currentColor" stroke="none"/>
  </symbol>
  <symbol id="mova-icon-self-host" viewBox="0 0 24 24" fill="none" stroke="currentColor" stroke-width="1.8" stroke-linecap="round" stroke-linejoin="round">
    <title>Docker / 自托管部署</title>
    <rect x="4.5" y="5" width="15" height="4.6" rx="1.4"/>
<rect x="4.5" y="14.4" width="15" height="4.6" rx="1.4"/>
<path d="M7.2 7.3h.05"/>
<path d="M7.2 16.7h.05"/>
<path d="M9.6 7.3h5.8"/>
<path d="M9.6 16.7h5.8"/>
<path d="M12 9.6v4.8"/>
  </symbol>
  <symbol id="mova-icon-tv" viewBox="0 0 24 24" fill="none" stroke="currentColor" stroke-width="1.8" stroke-linecap="round" stroke-linejoin="round">
    <title>智能电视</title>
    <rect x="3" y="5" width="18" height="11" rx="2"/>
<path d="M9 20h6"/>
<path d="M12 16v4"/>
<path d="M9.2 9.4v3.2l2.8-1.6-2.8-1.6Z" fill="currentColor" stroke="none"/>
<path d="M14.6 10h2.8"/>
<path d="M14.6 12.6h2.1"/>
  </symbol>
  <symbol id="mova-icon-mobile" viewBox="0 0 24 24" fill="none" stroke="currentColor" stroke-width="1.8" stroke-linecap="round" stroke-linejoin="round">
    <title>手机</title>
    <rect x="7.2" y="3.2" width="9.6" height="17.6" rx="2.4"/>
<path d="M10.8 6h2.4"/>
<path d="M11.8 18h.4"/>
<path d="M10.3 10.4v3.2l2.8-1.6-2.8-1.6Z" fill="currentColor" stroke="none"/>
  </symbol>
  <symbol id="mova-icon-tablet" viewBox="0 0 24 24" fill="none" stroke="currentColor" stroke-width="1.8" stroke-linecap="round" stroke-linejoin="round">
    <title>平板</title>
    <rect x="3.5" y="5" width="17" height="14" rx="2.4"/>
<path d="M17.4 12h.05"/>
<path d="M8.3 9.4v5.2l4.5-2.6-4.5-2.6Z" fill="currentColor" stroke="none"/>
<path d="M14.3 9.5h2.3"/>
<path d="M14.3 12h2.3"/>
<path d="M14.3 14.5h1.5"/>
  </symbol>
  <symbol id="mova-icon-desktop" viewBox="0 0 24 24" fill="none" stroke="currentColor" stroke-width="1.8" stroke-linecap="round" stroke-linejoin="round">
    <title>电脑</title>
    <path d="M5.4 5h13.2A1.9 1.9 0 0 1 20.5 6.9v8.2A1.9 1.9 0 0 1 18.6 17H5.4a1.9 1.9 0 0 1-1.9-1.9V6.9A1.9 1.9 0 0 1 5.4 5Z"/>
<path d="M8 20h8"/>
<path d="M10.2 17v3"/>
<path d="M13.8 17v3"/>
<path d="M8.4 9h7.2"/>
<path d="M8.4 12h4.8"/>
  </symbol>
  <symbol id="mova-icon-rocket" viewBox="0 0 24 24" fill="none" stroke="currentColor" stroke-width="1.8" stroke-linecap="round" stroke-linejoin="round">
    <title>快速部署</title>
    <path d="M12.6 13.4 9.8 10.6c1.55-3.9 4.25-6.5 8.2-7.1.6 3.95-1.9 6.75-5.4 9.9Z"/>
<path d="M9.8 10.6 6.9 10l-2.1 2.1 3.3 1.2"/>
<path d="M12.6 13.4 14 16.8l2.1-2.1-.6-2.9"/>
<path d="M7.2 16.8c-1.25.25-2.2.95-2.9 2.1 1.15-.7 1.85-1.65 2.1-2.9"/>
<path d="M15.6 7.7h.05"/>
  </symbol>
  <symbol id="mova-icon-multi-terminal" viewBox="0 0 24 24" fill="none" stroke="currentColor" stroke-width="1.8" stroke-linecap="round" stroke-linejoin="round">
    <title>多终端支持</title>
    <rect x="3.5" y="6" width="7.5" height="12" rx="1.6"/>
<rect x="13" y="4.5" width="7.5" height="10" rx="1.6"/>
<path d="M6.8 15.8h.05"/>
<path d="M16.3 12.3h.05"/>
<path d="M9.2 20h5.6"/>
<path d="M12 14.5V20"/>
  </symbol>
  <symbol id="mova-icon-data-shield" viewBox="0 0 24 24" fill="none" stroke="currentColor" stroke-width="1.8" stroke-linecap="round" stroke-linejoin="round">
    <title>自主管理数据</title>
    <path d="M12 20.5s7-3 7-9.2V6.6L12 4 5 6.6v4.7c0 6.2 7 9.2 7 9.2Z"/>
<path d="M12 8.2v8"/>
<path d="M8.7 11.4h6.6"/>
  </symbol>
  <symbol id="mova-icon-scalable" viewBox="0 0 24 24" fill="none" stroke="currentColor" stroke-width="1.8" stroke-linecap="round" stroke-linejoin="round">
    <title>高可扩展</title>
    <path d="M4.5 18.5h15"/>
<path d="M7 16v-4"/>
<path d="M12 16V8.5"/>
<path d="M17 16V6"/>
<path d="M6.5 8.8 10 5.4l3.3 3.3 5.1-5.1"/>
<path d="M15.8 3.6h2.6v2.6"/>
  </symbol>
  <symbol id="mova-icon-home" viewBox="0 0 24 24" fill="none" stroke="currentColor" stroke-width="1.8" stroke-linecap="round" stroke-linejoin="round">
    <title>首页 / 概览</title>
    <path d="M4.3 11.2 12 4.8l7.7 6.4"/>
<path d="M6.5 10.4v8.2h4v-4.8h3v4.8h4v-8.2"/>
  </symbol>
  <symbol id="mova-icon-library" viewBox="0 0 24 24" fill="none" stroke="currentColor" stroke-width="1.8" stroke-linecap="round" stroke-linejoin="round">
    <title>媒体库</title>
    <path d="M4.5 6.5h15"/>
<rect x="5" y="8.5" width="14" height="10.5" rx="1.8"/>
<path d="M8.5 12h7"/>
<path d="M8.5 15.5H13"/>
  </symbol>
  <symbol id="mova-icon-movie" viewBox="0 0 24 24" fill="none" stroke="currentColor" stroke-width="1.8" stroke-linecap="round" stroke-linejoin="round">
    <title>电影</title>
    <rect x="5" y="4.5" width="14" height="15" rx="2"/>
<path d="M8.2 4.5v15"/>
<path d="M15.8 4.5v15"/>
<path d="M5 8h3.2"/>
<path d="M5 16h3.2"/>
<path d="M15.8 8H19"/>
<path d="M15.8 16H19"/>
<path d="M11 10.1v3.8l3.2-1.9-3.2-1.9Z" fill="currentColor" stroke="none"/>
  </symbol>
  <symbol id="mova-icon-series" viewBox="0 0 24 24" fill="none" stroke="currentColor" stroke-width="1.8" stroke-linecap="round" stroke-linejoin="round">
    <title>剧集</title>
    <rect x="5" y="7" width="14" height="11" rx="2"/>
<path d="M8 4.8 10 7"/>
<path d="M16 4.8 14 7"/>
<path d="M9 11h6"/>
<path d="M9 14.5h3.8"/>
  </symbol>
  <symbol id="mova-icon-music" viewBox="0 0 24 24" fill="none" stroke="currentColor" stroke-width="1.8" stroke-linecap="round" stroke-linejoin="round">
    <title>音乐</title>
    <path d="M9 17.2a2.2 2.2 0 1 1-1.1-1.9V6.5l8-1.8v10"/>
<path d="M17.1 16.2a2.2 2.2 0 1 1-1.1-1.9"/>
<path d="M7.9 9.2 16 7.3"/>
  </symbol>
  <symbol id="mova-icon-photo" viewBox="0 0 24 24" fill="none" stroke="currentColor" stroke-width="1.8" stroke-linecap="round" stroke-linejoin="round">
    <title>照片</title>
    <rect x="4.5" y="5.5" width="15" height="13" rx="2"/>
<path d="M8.2 10a1.3 1.3 0 1 0 0-2.6 1.3 1.3 0 0 0 0 2.6Z"/>
<path d="M5 16.5 9.2 12l3.1 3.1 2.2-2.3 4.5 4.4"/>
  </symbol>
  <symbol id="mova-icon-playlist" viewBox="0 0 24 24" fill="none" stroke="currentColor" stroke-width="1.8" stroke-linecap="round" stroke-linejoin="round">
    <title>播放列表</title>
    <path d="M5 7h9"/>
<path d="M5 11h9"/>
<path d="M5 15h6"/>
<path d="M16.2 13.2v5.6l4.5-2.8-4.5-2.8Z" fill="currentColor" stroke="none"/>
  </symbol>
  <symbol id="mova-icon-user" viewBox="0 0 24 24" fill="none" stroke="currentColor" stroke-width="1.8" stroke-linecap="round" stroke-linejoin="round">
    <title>用户</title>
    <path d="M12 12.2a3.8 3.8 0 1 0 0-7.6 3.8 3.8 0 0 0 0 7.6Z"/>
<path d="M5.2 19.5c.85-3.25 3.35-5.05 6.8-5.05s5.95 1.8 6.8 5.05"/>
  </symbol>
  <symbol id="mova-icon-settings" viewBox="0 0 24 24" fill="none" stroke="currentColor" stroke-width="1.8" stroke-linecap="round" stroke-linejoin="round">
    <title>设置</title>
    <path d="M12 14.9a2.9 2.9 0 1 0 0-5.8 2.9 2.9 0 0 0 0 5.8Z"/>
<path d="M18.4 13.2c.08-.4.1-.8.1-1.2s-.03-.82-.1-1.2l1.6-1.25-1.55-2.7-1.95.8c-.65-.52-1.05-.72-1.75-1L14.5 4.5h-3l-.25 2.15c-.7.28-1.1.48-1.75 1l-1.95-.8L6 9.55l1.6 1.25c-.08.38-.1.8-.1 1.2s.03.8.1 1.2L6 14.45l1.55 2.7 1.95-.8c.65.52 1.05.72 1.75 1l.25 2.15h3l.25-2.15c.7-.28 1.1-.48 1.75-1l1.95.8 1.55-2.7-1.6-1.25Z"/>
  </symbol>
  <symbol id="mova-icon-search" viewBox="0 0 24 24" fill="none" stroke="currentColor" stroke-width="1.8" stroke-linecap="round" stroke-linejoin="round">
    <title>搜索</title>
    <path d="M10.8 17.1a6.3 6.3 0 1 0 0-12.6 6.3 6.3 0 0 0 0 12.6Z"/>
<path d="M15.5 15.5 20 20"/>
  </symbol>
  <symbol id="mova-icon-bell" viewBox="0 0 24 24" fill="none" stroke="currentColor" stroke-width="1.8" stroke-linecap="round" stroke-linejoin="round">
    <title>通知</title>
    <path d="M18 15.2H6c1.05-1.15 1.35-2.25 1.35-4.1V9.6a4.65 4.65 0 0 1 9.3 0v1.5c0 1.85.3 2.95 1.35 4.1Z"/>
<path d="M10.2 18.2a2 2 0 0 0 3.6 0"/>
  </symbol>
  <symbol id="mova-icon-docs" viewBox="0 0 24 24" fill="none" stroke="currentColor" stroke-width="1.8" stroke-linecap="round" stroke-linejoin="round">
    <title>文档</title>
    <path d="M6.5 4.5h7.8L18 8.2v11.3H6.5a1.8 1.8 0 0 1-1.8-1.8V6.3a1.8 1.8 0 0 1 1.8-1.8Z"/>
<path d="M14 4.8V8.5h3.7"/>
<path d="M8.3 12h7.4"/>
<path d="M8.3 15.5h5.2"/>
  </symbol>
  <symbol id="mova-icon-arrow-right" viewBox="0 0 24 24" fill="none" stroke="currentColor" stroke-width="1.8" stroke-linecap="round" stroke-linejoin="round">
    <title>右箭头</title>
    <path d="M5 12h14"/>
<path d="m13 6 6 6-6 6"/>
  </symbol>
  <symbol id="mova-icon-play" viewBox="0 0 24 24" fill="none" stroke="currentColor" stroke-width="1.8" stroke-linecap="round" stroke-linejoin="round">
    <title>播放</title>
    <path d="M8 6.7v10.6c0 .85.93 1.38 1.67.94l8.7-5.3a1.1 1.1 0 0 0 0-1.88l-8.7-5.3A1.1 1.1 0 0 0 8 6.7Z" fill="currentColor" stroke="none"/>
  </symbol>
</defs>
</svg>
