<svg xmlns="http://www.w3.org/2000/svg" style="display:none">
  <defs>
    <symbol id="mova-icon-private-library" viewBox="0 0 24 24" fill="none" stroke="currentColor" stroke-width="1.8" stroke-linecap="round" stroke-linejoin="round">
      <title>私有媒体库</title>
      <path d="M5.5 8.5h13a1.5 1.5 0 0 1 1.5 1.5v7.5A2.5 2.5 0 0 1 17.5 20h-11A2.5 2.5 0 0 1 4 17.5V10a1.5 1.5 0 0 1 1.5-1.5Z"/>
      <path d="M8 8.5V6.8A2.8 2.8 0 0 1 10.8 4h2.4A2.8 2.8 0 0 1 16 6.8v1.7"/>
      <path d="M9 14h6"/>
      <path d="M12 11.7v4.6"/>
    </symbol>
    <symbol id="mova-icon-device-access" viewBox="0 0 24 24" fill="none" stroke="currentColor" stroke-width="1.8" stroke-linecap="round" stroke-linejoin="round">
      <title>多设备访问</title>
      <rect x="3.5" y="5" width="12" height="8.5" rx="1.8"/>
      <path d="M8.3 17h2.5"/>
      <path d="M9.55 13.5V17"/>
      <rect x="17" y="9" width="3.8" height="10" rx="1.2"/>
      <path d="M18.6 16.8h.6"/>
    </symbol>
    <symbol id="mova-icon-transcode" viewBox="0 0 24 24" fill="none" stroke="currentColor" stroke-width="1.8" stroke-linecap="round" stroke-linejoin="round">
      <title>高性能转码</title>
      <path d="M5 7.5h10.8l-2.7-2.7"/>
      <path d="M15.8 7.5l-2.7 2.7"/>
      <path d="M19 16.5H8.2l2.7 2.7"/>
      <path d="M8.2 16.5l2.7-2.7"/>
      <path d="M10 10.1v3.8c0 .55.6.9 1.08.62l3.2-1.9a.72.72 0 0 0 0-1.24l-3.2-1.9A.72.72 0 0 0 10 10.1Z" fill="currentColor" stroke="none"/>
    </symbol>
    <symbol id="mova-icon-permissions" viewBox="0 0 24 24" fill="none" stroke="currentColor" stroke-width="1.8" stroke-linecap="round" stroke-linejoin="round">
      <title>用户与权限管理</title>
      <path d="M9.5 12a3.4 3.4 0 1 0 0-6.8 3.4 3.4 0 0 0 0 6.8Z"/>
      <path d="M4.2 19.2c.72-2.95 2.75-4.45 5.3-4.45 1.05 0 2.02.25 2.83.75"/>
      <path d="M16.4 20.2s3.8-1.65 3.8-5.2v-2.3l-3.8-1.35-3.8 1.35V15c0 3.55 3.8 5.2 3.8 5.2Z"/>
      <path d="M15 15.1l.95.95 1.95-2.1"/>
    </symbol>
    <symbol id="mova-icon-metadata" viewBox="0 0 24 24" fill="none" stroke="currentColor" stroke-width="1.8" stroke-linecap="round" stroke-linejoin="round">
      <title>元数据整理</title>
      <path d="M6.5 4.5h7.2L18 8.8v10.7H6.5a1.8 1.8 0 0 1-1.8-1.8V6.3a1.8 1.8 0 0 1 1.8-1.8Z"/>
      <path d="M13.5 4.8V9h4.2"/>
      <path d="M8.2 12.5h7.6"/>
      <path d="M8.2 16h4.8"/>
      <path d="M17.7 13.2l.35.95.95.35-.95.35-.35.95-.35-.95-.95-.35.95-.35.35-.95Z" fill="currentColor" stroke="none"/>
    </symbol>
    <symbol id="mova-icon-home" viewBox="0 0 24 24" fill="none" stroke="currentColor" stroke-width="1.8" stroke-linecap="round" stroke-linejoin="round">
      <title>首页 / 概览</title>
      <path d="M4.3 11.2 12 4.8l7.7 6.4"/>
      <path d="M6.5 10.4v8.2h4v-4.8h3v4.8h4v-8.2"/>
    </symbol>
    <symbol id="mova-icon-arrow-right" viewBox="0 0 24 24" fill="none" stroke="currentColor" stroke-width="1.8" stroke-linecap="round" stroke-linejoin="round">
      <title>右箭头</title>
      <path d="M5 12h14"/>
      <path d="m13 6 6 6-6 6"/>
    </symbol>
  </defs>
</svg>
