<?xml version="1.0" encoding="UTF-8" standalone="no"?>
<!-- Created with Inkscape (http://www.inkscape.org/) -->

<svg
   xmlns:dc="http://purl.org/dc/elements/1.1/"
   xmlns:cc="http://creativecommons.org/ns#"
   xmlns:rdf="http://www.w3.org/1999/02/22-rdf-syntax-ns#"
   xmlns:svg="http://www.w3.org/2000/svg"
   xmlns="http://www.w3.org/2000/svg"
   xmlns:sodipodi="http://sodipodi.sourceforge.net/DTD/sodipodi-0.dtd"
   xmlns:inkscape="http://www.inkscape.org/namespaces/inkscape"
   version="1.1"
   width="1000"
   height="449.94"
   id="svg4575"
   inkscape:version="0.91 r13725"
   sodipodi:docname="DTS.svg">
  <metadata
     id="metadata3028">
    <rdf:RDF>
      <cc:Work
         rdf:about="">
        <dc:format>image/svg+xml</dc:format>
        <dc:type
           rdf:resource="http://purl.org/dc/dcmitype/StillImage" />
        <dc:title></dc:title>
      </cc:Work>
    </rdf:RDF>
  </metadata>
  <sodipodi:namedview
     pagecolor="#ffffff"
     bordercolor="#666666"
     borderopacity="1"
     objecttolerance="10"
     gridtolerance="10"
     guidetolerance="10"
     inkscape:pageopacity="0"
     inkscape:pageshadow="2"
     inkscape:window-width="1366"
     inkscape:window-height="705"
     id="namedview3026"
     showgrid="false"
     inkscape:zoom="0.70710678"
     inkscape:cx="569.79622"
     inkscape:cy="138.33085"
     inkscape:window-x="-8"
     inkscape:window-y="-8"
     inkscape:window-maximized="1"
     inkscape:current-layer="svg4575" />
  <defs
     id="defs4577" />
  <path
     d="m 976.3617,3.2e-4 c -12.66587,0 -23.17436,10.64767 -23.17436,23.29034 0,12.73545 10.50849,23.38313 23.17436,23.38313 C 990.02505,46.67379 1000,36.02611 1000,23.29066 1000,10.64799 990.02505,3.2e-4 976.3617,3.2e-4 Z m 0,5.03386 c 10.64767,0 18.58123,8.28153 18.58123,18.25648 0,10.16052 -7.93356,17.76932 -18.58123,17.76932 -9.511,0 -17.49096,-7.6088 -17.49096,-17.76932 0,-9.97495 7.97996,-18.25648 17.49096,-18.25648 z m -8.67589,6.84328 0,22.24645 5.52102,0 0,-8.4671 3.15487,0 c 3.98997,0 4.43073,0.76459 5.12665,5.24264 0,1.5997 0,2.55173 0.3489,3.22446 l 5.17305,0 c 0,-0.30249 0,-0.30249 0,-0.6718 0,-0.95017 0,-1.22854 0,-1.62383 0,0 0,-0.18558 0,-1.02069 -0.48808,-3.34045 -0.9743,-5.33544 -1.94859,-6.28654 l -1.48465,-1.23039 1.48465,-0.18559 c 1.46237,-2.20376 1.94859,-2.7605 1.94859,-4.84828 0,-4.47713 -3.43324,-6.37933 -8.58309,-6.37933 l -10.74047,0 z m 5.52102,3.8044 4.29155,0 c 2.85329,0 3.98997,1.32133 3.98997,3.31725 0,1.71662 -1.13575,2.11098 -4.47712,2.11098 l -3.8044,0 0,-5.42823"
     id="path472"
     style="fill:#000000;fill-opacity:1;fill-rule:evenodd;stroke:none"
     inkscape:connector-curvature="0" />
  <path
     inkscape:connector-curvature="0"
     style="fill:#000000;fill-opacity:1;fill-rule:evenodd;stroke:none"
     id="path4134"
     d="m 0,0.1859 939.45439,0 0,449.7541 L 0,449.94 Z"
     sodipodi:nodetypes="ccccc" />
  <path
     d="m 661.87251,346.91968 c -8.67589,-3.22446 -18.0013,-3.22446 -25.37812,-3.22446 l 0,25.07655 c 6.82008,0 17.74612,0.39529 28.11543,3.7812 11.20441,3.22446 33.38127,10.4853 73.46664,10.4853 92.46543,0 155.98033,-26.60759 155.98033,-70.31178 0,-22.26965 -34.03081,-43.91296 -59.89608,-66.2986 -7.05205,-7.42322 -12.94423,-13.59376 -9.99814,-21.29535 2.94609,-11.87715 31.10791,-13.59376 54.07349,-11.87715 l 3.36364,-15.86712 c -30.34239,-9.13984 -62.471,-14.1737 -96.45541,-14.1737 -85.52937,0 -139.74204,24.33423 -139.74204,59.31613 0,26.28283 32.1518,45.4672 65.02273,72.07479 9.71977,10.25332 9.71977,14.80004 6.77368,24.31103 -4.89468,13.87214 -35.28347,13.87214 -55.32615,8.00316 z m -224.99304,-202.28264 146.95648,-66.3218 -0.48808,108.70372 39.08787,0 0,34.33238 -39.08787,0 0,115.10624 c 0,5.12666 9.04705,10.4621 16.26148,11.4132 11.4132,0.9279 22.82639,-4.59312 36.88411,-4.59312 l 0,25.49411 c -8.5367,0 -16.81823,0.39529 -28.69537,3.06208 -25.28533,6.44892 -55.48854,8.69908 -83.71996,8.69908 -43.91296,0 -88.68424,-18.41886 -88.68424,-51.68414 l 0,-107.49745 -45.55998,0 0,-34.33238 47.04463,0 0,-42.38192 z m -195.88012,-91.05038 0,142.20098 c -21.29535,-9.60379 -35.65463,-11.13483 -58.87538,-11.04204 -63.53809,2.27336 -128.282456,35.63144 -128.120073,98.12564 0,60.82398 57.413933,101.48928 120.325693,100.16702 26.97875,-0.97429 42.82268,-2.50533 66.66976,-14.26649 l 0,11.76116 148.83548,0 0,-326.94627 z m 0,175.44307 0,111.41783 c -26.56119,-7.97996 -40.7349,-30.22641 -40.29414,-57.57632 0.85738,-26.05085 15.37997,-46.4183 40.29414,-53.84151"
     id="path476"
     style="fill:#ffffff;fill-opacity:1;fill-rule:evenodd;stroke:none"
     inkscape:connector-curvature="0"
     sodipodi:nodetypes="ccccssccccsscccccccccsccccsscccccccccccccccccccc" />
</svg>
